<?xml version="1.0" encoding="utf-8"?>
<!-- Generator: Adobe Illustrator 22.1.0, SVG Export Plug-In . SVG Version: 6.00 Build 0)  -->
<svg version="1.1" id="Layer_1" xmlns="http://www.w3.org/2000/svg" xmlns:xlink="http://www.w3.org/1999/xlink" x="0px" y="0px"
	 viewBox="0 0 137.2 41.5" style="enable-background:new 0 0 137.2 41.5;" xml:space="preserve">
<title>beaus-beige-logo</title>
<path d="M61.5,30.3H63v-9.4h-1.5v-2.2h6.1c1-0.1,2,0.2,2.9,0.7c0.8,0.7,1.3,1.7,1.3,2.7c0,1.3-0.7,2.4-1.8,2.9
	c1.5,0.5,2.4,2,2.4,3.5c0,1.1-0.5,2.2-1.3,2.9c-0.9,0.7-2,1-3.2,0.9h-6.4V30.3z M65.7,30.2h1.4c0.7,0.1,1.3-0.1,1.9-0.4
	c0.5-0.3,0.8-0.9,0.8-1.5c0-0.6-0.3-1.2-0.8-1.6c-0.6-0.3-1.2-0.5-1.9-0.4h-1.4L65.7,30.2z M65.7,24.2H67c0.6,0.1,1.2,0,1.8-0.4
	c0.7-0.6,0.8-1.7,0.2-2.4c-0.1-0.1-0.2-0.2-0.3-0.3c-0.5-0.2-1.1-0.3-1.7-0.3h-1.3L65.7,24.2z"/>
<path d="M76.3,30.3h1.5v-9.4h-1.5v-2.2h10.2v4.1h-2.6v-1.8h-3.4v3.4h4v2h-4v3.6h3.5v-1.8h2.6v4.2H76.3V30.3z"/>
<path d="M99.1,30.6h1.5l-0.8-2.1H95l-0.8,2.1h1.5v1.9H90v-2.2h1.5l4-9.4H94v-2.2h4.6l4.8,11.6h1.5v2.2h-5.8V30.6z M97.4,21.8
	L97.4,21.8l-1.8,4.7h3.5L97.4,21.8z"/>
<path d="M119.2,18.7v2.2h-1.5v6.8c0.1,1.3-0.3,2.7-1.2,3.6c-1.8,2-4.9,2.2-7,0.3c-1.1-1-1.7-2.5-1.6-4.1v-6.8h-1.5v-2.2h5.4v2.2
	h-1.2v6.5c-0.1,0.7,0.1,1.3,0.4,1.9c0.4,0.6,1.1,1,1.9,1c0.7,0,1.3-0.3,1.8-0.8c0.4-0.6,0.6-1.3,0.5-2.1v-6.5h-1.2v-2.2H119.2z"/>
<path d="M125.1,21.9c0.1,0.6-0.1,1.3-0.5,1.8c-0.4,0.5-1,0.7-1.6,0.6h-0.4v-1.3h0.2c0.8,0,0.8-0.6,0.8-1.2v-0.2h-1.1v-2.7h2.4
	L125.1,21.9z"/>
<path d="M130.5,28.4c-0.1,1.1,0.8,2,1.9,2.1c0,0,0.1,0,0.1,0c1,0.1,1.9-0.7,2-1.7c0-0.1,0-0.1,0-0.2c0-1.4-1.3-1.7-2.4-2
	c-1-0.2-1.9-0.6-2.7-1.2c-1-0.7-1.5-1.8-1.5-3c0-2.3,1.9-4,4.2-4c0,0,0,0,0,0c0.9,0,1.8,0.3,2.4,1.1v-0.8h2v3.7h-2.4
	c0-1-0.8-1.8-1.7-1.8c0,0,0,0-0.1,0c-1-0.1-1.8,0.6-1.9,1.6c0,0,0,0.1,0,0.1c0,1.4,1.2,1.6,2.3,2c1.1,0.2,2.1,0.6,3,1.2
	c0.9,0.7,1.4,1.8,1.4,2.9c0.1,2.3-1.8,4.3-4.1,4.3c-0.1,0-0.2,0-0.2,0c-1,0-2-0.4-2.6-1.2v0.9H128v-4.1H130.5z"/>
<path d="M30.2,16.8l1.2,0.6h0.1c0.1,0,0.2,0,0.2-0.1c0-0.1,0-0.2-0.1-0.2l-1.4-0.7c-0.1,0-0.1,0-0.1,0.1v0.2
	C30.1,16.7,30.2,16.8,30.2,16.8z"/>
<path d="M30.2,15.7l1.3,0.7c0.1,0,0.2,0,0.3-0.1c0-0.1,0-0.2-0.1-0.3l-1.4-0.7c-0.1,0-0.1,0-0.1,0.1L30.2,15.7
	C30.1,15.6,30.2,15.7,30.2,15.7z"/>
<path d="M33.8,18.6c0,0,0,0.1,0.1,0.1c0.4,0.1,0.8,0.3,1.1,0.6c0.1,0.1,0.2,0.1,0.3,0c0.1-0.1,0.1-0.2,0-0.3
	c-0.4-0.4-0.8-0.7-1.4-0.8c0,0-0.1,0-0.1,0.1L33.8,18.6z"/>
<path d="M31.6,36.5c0.9,0,1.6-1.8,1.6-4.1s-0.7-4.5-1.6-5s-2,1.2-2,4S30.6,36.5,31.6,36.5z M30.9,27.7c0.1-0.1,0.2-0.1,0.3-0.1
	c0.1,0,0.2,0,0.2,0.1c0.5,0.5,0.9,1.1,1.1,1.7c0.2,0.8,0.4,1.7,0.4,2.6c0,0.8,0,1.7-0.2,2.5c-0.1,0.6-0.4,1.2-0.9,1.7
	c-0.1,0.1-0.2,0.1-0.3,0.1c-0.1,0-0.2-0.1-0.3-0.2c0,0,0-0.1,0-0.1c0-0.1,0.1-0.1,0.1-0.1c0.1,0,0.2,0,0.4-0.2
	c0.7-1.1,1-2.4,0.8-3.8c-0.1-1.9-0.6-3.5-1.3-4c-0.1,0-0.1-0.1-0.2-0.1C31,27.9,30.9,27.8,30.9,27.7C30.9,27.7,30.9,27.7,30.9,27.7z
	 M31.8,31.3c0-0.1,0-0.2,0.1-0.3c0.1,0,0.2,0,0.3,0.1l0,0c0.2,0.4,0.2,0.9,0,1.3c0,0.1-0.1,0.1-0.2,0.1h-0.1c-0.1,0-0.1-0.2-0.1-0.3
	c0,0,0,0,0,0C32,31.9,32,31.6,31.8,31.3L31.8,31.3z M31,30.6c0-0.1,0.1-0.1,0.2-0.1h0.5c0,0,0.1,0,0,0l0,0c-0.2,0.3-0.3,0.7-0.3,1.1
	c0,0.4,0.1,0.9,0.3,1.2c0,0,0.1,0.1,0,0.1h-0.5c0,0-0.1,0-0.1-0.1C30.7,32.1,30.7,31.3,31,30.6L31,30.6z"/>
<path d="M30.5,14.4l1,0.6c0.8,0.4,1.3,1.2,1.2,2.1v2.1c0,0.1,0.1,0.2,0.2,0.2s0.2-0.1,0.2-0.2v-2.1c0.1-1-0.4-2-1.4-2.4l-0.9-0.5
	 M30.8,14.1L30.8,14.1c-0.1,0.1-0.2,0.2-0.3,0.2l0,0L30.8,14.1z"/>
<path d="M23.2,18.7L23.2,18.7L23,18.6l0,0c-0.1,0-0.1,0-0.1,0.1v4.8c0,0.1,0.1,0.2,0.2,0.2s0.2-0.1,0.2-0.2l0,0v-4.6
	C23.3,18.8,23.3,18.7,23.2,18.7z"/>
<path d="M3.6,31c0.1,0,0.3-0.1,0.3-0.2c0,0,0,0,0,0c0-1,0.1-1.9,0.2-2.9c0.1-1,0.4-2,0.8-2.9v-0.8c-1,2-1.5,4.3-1.5,6.6
	C3.4,30.9,3.5,31,3.6,31z"/>
<path d="M3.6,23.4C3.6,23.4,3.6,23.4,3.6,23.4c-0.2,0-0.3,0.1-0.3,0.1c-1.4,1.6-1.9,4.8-1.9,7.1c0,0.2,0.1,0.3,0.2,0.3
	c0.1,0,0.3-0.1,0.3-0.2c0,0,0,0,0,0c0-1,0-2,0.2-2.9c0.1-1.5,0.6-3,1.5-4.2C3.6,23.5,3.6,23.4,3.6,23.4z"/>
<path d="M4.8,15c-0.5,0.3-0.8,0.9-0.8,1.5c0,0.6,0.3,1.2,0.8,1.5c0.1,0,0.1,0,0.1-0.1L4.8,15C4.9,15,4.8,15,4.8,15z"/>
<path d="M4.6,23.4C4.6,23.4,4.6,23.4,4.6,23.4c-0.2,0-0.3,0.1-0.4,0.1c-1.4,1.6-1.9,4.8-1.9,7.1c0,0.2,0.1,0.3,0.2,0.3
	c0.1,0,0.3-0.1,0.3-0.2c0,0,0,0,0,0c0-1,0.1-1.9,0.2-2.9c0.1-1.5,0.6-3,1.5-4.2C4.6,23.5,4.6,23.4,4.6,23.4z"/>
<path d="M36.6,16h0.8c1.8,0,4.3-0.2,5.1-1.6c0.3-0.6,0.7-1.2,1.2-1.8c0.1-0.2,0.3-0.3,0.4-0.5l0,0c0.1-0.1,0-0.2-0.1-0.2h-4.2
	c-0.8,0.1-1.5,0.6-1.9,1.2c-0.6,0.8-1.1,1.6-1.4,2.6l0,0C36.4,15.9,36.4,15.9,36.6,16C36.5,16,36.5,16,36.6,16z"/>
<path d="M37.8,26.3l-0.8-0.5c-0.1-0.1-0.2,0-0.3,0.1c0,0.1,0,0.1,0,0.2v0.1c0,0.1,0.1,0.1,0.1,0.2l0.8,0.4h0.1
	c0.1,0,0.2-0.1,0.2-0.2C37.8,26.4,37.8,26.3,37.8,26.3L37.8,26.3z"/>
<path d="M41.2,23.4c-0.1,0-0.2,0-0.2,0L38,25.1c-0.1,0.1-0.1,0.2-0.1,0.3c0,0.1,0.1,0.1,0.2,0.1h0.1l2.9-1.4c0.1,0,0.1-0.1,0.1-0.2
	v-0.4C41.3,23.5,41.3,23.4,41.2,23.4z"/>
<path d="M36.3,22.8l1.9,1c0.1,0.1,0.3,0,0.3-0.1c0.1-0.1,0-0.3-0.1-0.3l0,0l-1.9-1.2c-0.1-0.1-0.2-0.1-0.3,0c0,0,0,0.1,0,0.1v0.2
	C36.1,22.7,36.2,22.8,36.3,22.8z"/>
<path d="M41.3,20.2l-3,1.7c-0.1,0-0.2,0.2-0.1,0.3c0,0.1,0.1,0.2,0.2,0.1h0.1l3-1.3c0.1,0,0.1-0.1,0.1-0.2v-0.4
	c0-0.1-0.1-0.2-0.2-0.3C41.4,20.2,41.3,20.2,41.3,20.2L41.3,20.2z"/>
<ellipse cx="23.9" cy="16.5" rx="1.2" ry="1.6"/>
<path d="M47.4,33.6c1.2,0,2.2-2.8,2.2-6.3s-0.9-6.9-2.2-7.6s-2.7,1.9-2.7,6.2S46,33.6,47.4,33.6z M46.5,19.8
	c0.1-0.1,0.2-0.1,0.3-0.1c0.1,0,0.1,0,0.2,0c1.4,0.7,2.1,3.9,2.2,6.5c0.1,1.4,0,2.9-0.3,4.3c-0.1,1-0.6,2-1.4,2.7
	c-0.1,0.1-0.2,0.1-0.3,0.1c-0.1,0-0.3-0.1-0.4-0.2c0,0,0-0.1,0-0.1c0,0,0.1-0.1,0.1,0l0,0c0.1,0,0.2,0,0.2-0.1l0.2-0.1
	c0.9-0.8,1.5-3.4,1.3-6.5s-0.9-5.6-2-6.1c-0.1,0-0.1,0-0.2,0c-0.1,0-0.1,0-0.2-0.1C46.4,20,46.4,19.9,46.5,19.8L46.5,19.8z M48,25.4
	c-0.1-0.1-0.1-0.2,0-0.3c0.1-0.1,0.2-0.1,0.3,0c0.4,0.8,0.4,1.7,0,2.5c-0.1,0.1-0.2,0.1-0.3,0c-0.1-0.1-0.1-0.2,0-0.3l0,0
	c0.2-0.3,0.2-0.7,0.2-1C48.2,26.1,48.1,25.7,48,25.4L48,25.4z M46.8,24.6c0-0.1,0.1-0.1,0.2-0.1h0.7c0.1,0,0.1,0.1,0.1,0.1l0,0
	c-0.3,0.5-0.4,1-0.3,1.6c0,0.7,0.1,1.4,0.5,2l0,0c0,0,0,0.1-0.1,0.1H47c-0.1,0-0.1,0-0.1-0.1l0,0C46.3,27.1,46.2,25.7,46.8,24.6
	L46.8,24.6z"/>
<path d="M39.2,17.6L39.2,17.6c0.1,0,0.2-0.1,0.2-0.2c0-0.1,0-0.2-0.1-0.2l-0.2-0.1c-0.2-0.1-0.4-0.2-0.6-0.1c-0.1,0.1-0.1,0.2,0,0.2
	c0,0,0,0,0,0L39.2,17.6C39.1,17.6,39.1,17.6,39.2,17.6z"/>
<path d="M41.8,17.1l-3.1,1.7c-0.1,0.1-0.2,0.2-0.1,0.3c0,0.1,0.1,0.1,0.2,0.1h0.1l3-1.4c0.1,0,0.1-0.1,0.1-0.2l0.1-0.4
	c0-0.1,0-0.2-0.2-0.3C41.9,17.1,41.9,17.1,41.8,17.1L41.8,17.1z"/>
<path d="M36.6,19c-0.1,0-0.1,0.1-0.1,0.2v0.2c0,0.1,0,0.2,0.1,0.2l2,1.1c0.1,0.1,0.3,0,0.3-0.1c0.1-0.1,0-0.3-0.1-0.3l-2-1.4
	C36.8,19,36.7,19,36.6,19z"/>
<path d="M13.8,18.1h4.4c0.2,0,0.4-0.2,0.4-0.4s-0.2-0.4-0.4-0.4h-4.4c-0.2,0-0.4,0.2-0.4,0.4S13.6,18.1,13.8,18.1L13.8,18.1z"/>
<path d="M13.8,13.5h4.4c0.2,0,0.4-0.2,0.4-0.3s-0.2-0.4-0.3-0.4c0,0,0,0,0,0h-4.4c-0.2,0-0.4,0.2-0.4,0.3S13.6,13.5,13.8,13.5
	C13.8,13.5,13.8,13.5,13.8,13.5z"/>
<path d="M6.2,26.2h15c0.3,0,0.6-0.2,0.6-0.6c0,0,0,0,0-0.1V11.6c0.1-0.7,0.7-1.2,1.4-1.1c0.2,0,0.3,0.1,0.5,0.2l4.2,2.3
	c0.1,0,0.1,0,0.1-0.1v-0.5c0,0,0-0.1,0-0.1l0,0l-9.2-5.5l0,0c-1.6-0.9-3.5-1.4-5.3-1.4C11.4,5.4,9.3,6,7.6,7.2
	C6.9,7.7,6.4,8.3,6.1,9c-0.4,0.8-0.5,1.6-0.5,2.5v14C5.5,25.9,5.8,26.2,6.2,26.2z M6.8,12.6C6.8,11,8,9.8,9.5,9.8h7
	c1.5,0,2.7,1.2,2.7,2.8v10.7c0,0.4-0.1,0.8-0.9,0.8H7.5c-0.7,0-0.7-0.6-0.7-0.6C6.8,22.9,6.8,12.6,6.8,12.6z"/>
<path d="M13.8,22.8h4.4c0.2,0,0.4-0.2,0.4-0.4s-0.2-0.4-0.4-0.4h-4.4c-0.2,0-0.4,0.2-0.4,0.4S13.6,22.8,13.8,22.8L13.8,22.8z"/>
<path d="M13.8,12h3.6c0.2,0,0.3-0.2,0.3-0.4c0-0.2-0.2-0.3-0.3-0.3h-3.6c-0.2,0-0.3,0.2-0.3,0.4C13.5,11.8,13.6,12,13.8,12z"/>
<path d="M21.3,30c0.3,0,0.5,0,0.8-0.2c0.2-0.2,0.2-0.4,0.2-0.7v-1.4c0-0.2,0-0.4-0.2-0.6c-0.1-0.1-0.3-0.2-0.5-0.2H5.7
	c-0.3,0-0.5,0.2-0.6,0.5c0,0,0,0.1,0,0.1v1.8c0,0.2,0,0.4,0.1,0.5C5.4,30,5.7,30,5.9,30H21.3z"/>
<path d="M13.8,21.2h4.4c0.2,0,0.4-0.2,0.4-0.4s-0.2-0.4-0.4-0.4h-4.4c-0.2,0-0.4,0.2-0.4,0.4S13.6,21.2,13.8,21.2L13.8,21.2z"/>
<path d="M8,22.4c0,0.2,0.2,0.4,0.3,0.4h0h3.8V23c0,0.2,0.2,0.3,0.4,0.3l0,0c0.2,0,0.3-0.2,0.3-0.4c0,0,0,0,0,0l-1-12.1
	c0-0.2-0.2-0.3-0.4-0.3c-0.2,0-0.3,0.2-0.3,0.4v0.4H8.9c-0.2,0-0.3,0.2-0.3,0.4c0,0.2,0.2,0.3,0.3,0.3h2.4l0.1,0.8h-3
	C8.2,12.8,8,13,8,13.2s0.2,0.4,0.3,0.4c0,0,0,0,0,0h3.1l0.1,0.8H8.3c-0.2,0-0.4,0.2-0.4,0.3s0.2,0.4,0.3,0.4c0,0,0,0,0,0h3.2
	l0.1,0.8H8.3c-0.2,0-0.4,0.2-0.4,0.4s0.2,0.4,0.4,0.4h3.3l0.1,0.8H8.3c-0.2,0-0.4,0.2-0.4,0.4s0.2,0.4,0.4,0.4h3.5l0.1,0.8H8.3
	C8.1,19,8,19.2,8,19.4s0.2,0.4,0.4,0.4h3.6l0.1,0.8H8.3c-0.2,0-0.4,0.2-0.4,0.4s0.2,0.4,0.4,0.4H12l0.1,0.8H8.3
	C8.2,22.1,8,22.2,8,22.4z"/>
<path d="M13.8,19.7h4.4c0.2,0,0.4-0.2,0.4-0.4S18.4,19,18.2,19h-4.4c-0.2,0-0.4,0.2-0.4,0.4S13.6,19.7,13.8,19.7L13.8,19.7z"/>
<path d="M13.8,16.6h4.4c0.2,0,0.4-0.2,0.4-0.3c0-0.2-0.2-0.4-0.3-0.4c0,0,0,0,0,0h-4.4c-0.2,0-0.4,0.2-0.4,0.3S13.6,16.6,13.8,16.6
	C13.8,16.6,13.8,16.6,13.8,16.6z"/>
<path d="M13.8,15.1h4.4c0.2,0,0.4-0.2,0.4-0.3s-0.2-0.4-0.3-0.4c0,0,0,0,0,0h-4.4c-0.2,0-0.3,0.2-0.3,0.4
	C13.5,14.9,13.6,15.1,13.8,15.1z"/>
<path d="M28.3,23.4C28.3,23.4,28.3,23.4,28.3,23.4c-0.2,0-0.3,0.1-0.4,0.1c-1.4,1.6-1.9,4.8-1.9,7.1c0,0.2,0.1,0.3,0.2,0.3
	c0.1,0,0.3-0.1,0.3-0.2c0,0,0,0,0,0c0-1,0.1-1.9,0.2-2.9c0.1-1.5,0.6-3,1.5-4.2C28.3,23.5,28.3,23.4,28.3,23.4z"/>
<path d="M29,23.5c-1.4,1.6-1.9,4.8-1.9,7.1c0,0.2,0.1,0.3,0.2,0.3c0.1,0,0.3-0.1,0.3-0.2c0,0,0,0,0,0c0-1,0.1-1.9,0.2-2.9
	c0.1-1.5,0.6-3,1.5-4.2c0-0.1,0.1-0.1,0-0.1s0,0-0.1,0C29.2,23.4,29.1,23.5,29,23.5z"/>
<path d="M29.1,4.6h0.2c0.1,0,0.1,0,0.1-0.1V1.3c0-0.1-0.1-0.2-0.2-0.2S29,1.2,29,1.3L29.1,4.6C29,4.5,29.1,4.6,29.1,4.6z"/>
<path d="M25.8,16.4L25.8,16.4c0,0.1,0,0.2,0.1,0.2l0.8,0.4c0.1,0,0.2,0,0.2-0.1c-0.2-0.8-0.7-1.5-1.4-1.9c-0.1,0-0.2,0-0.1,0.1l0,0
	l0,0C25.6,15.5,25.8,15.9,25.8,16.4z"/>
<path d="M23.3,11.9c-0.2,0.2-0.4,0.4-0.4,0.7v1.9c0.1-0.1,0.3-0.1,0.4-0.2v-1.1l5.2,2.7l0,0c0.1,0,0.1,0,0.1-0.1v-0.2
	c0-0.1-0.1-0.1-0.1-0.1l-5.2-2.7v-0.1c0-0.1,0-0.3,0.2-0.4s0.3,0,0.5,0.1c0.6,0.3,2.8,1.5,4.6,2.4c0.1,0,0.1,0,0.1-0.1v-0.2
	c0-0.1,0-0.1-0.1-0.1c-1.8-0.9-3.9-2-4.4-2.3C23.9,11.9,23.6,11.8,23.3,11.9z"/>
<path d="M27.3,23.4C27.3,23.4,27.3,23.4,27.3,23.4c-0.2,0-0.3,0.1-0.4,0.1c-1.4,1.6-1.9,4.7-1.9,7.1c0,0.2,0.1,0.3,0.2,0.3
	c0.1,0,0.3-0.1,0.3-0.2c0,0,0,0,0,0c0-1,0.1-1.9,0.2-2.9c0.1-1.5,0.6-3,1.5-4.2C27.3,23.5,27.3,23.4,27.3,23.4z"/>
<path d="M28.5,12.4c0.2-0.1,0.4-0.1,0.7-0.1h0.2c0.1,0,0.1,0,0.1-0.1v-7c0,0,0-0.1-0.1-0.1c0,0,0,0,0,0h-0.2c-0.4,0-0.6,0.1-0.7,0.4
	c0,0,0,0.1,0,0.1L28.5,12.4C28.4,12.4,28.5,12.4,28.5,12.4z"/>
<path d="M34.6,15.6c-0.1-0.5-0.5-1-0.9-1.3l-0.5,0.6l0.2,0.2L34.6,15.6z"/>
<path d="M32.6,14.4L33,14h-0.1c-0.4-0.1-0.7-0.2-1.1-0.2h-0.1l0.3,0.2C32.2,14.1,32.4,14.3,32.6,14.4z"/>
<path d="M33.8,16.5c0.2,0,0.3-0.1,0.5-0.2l-0.5-0.2C33.8,16.2,33.8,16.4,33.8,16.5z"/>
<path d="M48.9,41.3L48.9,41.3z"/>
<path d="M52.4,31.4c0.2-0.2,0.3-0.4,0.3-0.6l0.1-2.5c0-0.2-0.1-0.5-0.2-0.6l-0.2-0.2c0-0.6,0-1.2-0.1-1.8l0.2-0.2
	c0.1-0.2,0.2-0.4,0.2-0.6l-0.2-2.5c0-0.2-0.1-0.4-0.3-0.6l-0.3-0.2c-0.1-0.5-0.2-1-0.3-1.5l0,0c0.2-0.2,0.2-0.5,0.1-0.7l-0.5-1.9
	c-0.1-0.3-0.2-0.5-0.5-0.6h-0.1c-0.1-0.3-0.2-0.5-0.3-0.8c0.1-0.2,0.1-0.5,0-0.8L49.8,14c-0.1-0.1-0.2-0.2-0.3-0.3
	c-0.5-1.8-1.8-2.9-2.6-2.9h-7.2c-1.8,0.1-3.3,1.9-4.1,3.8c-0.5-0.8-1.3-1.4-2.2-1.7c-0.6-0.2-1.1-0.3-1.7-0.3V6.1
	c0-0.6-0.3-1.2-0.9-1.6V1.4c0-0.6-0.4-1.1-1-1.3c-0.7-0.3-1.4,0.1-1.7,0.7c0,0.1,0,0.2,0,0.3v3.2c-0.3,0.2-0.5,0.5-0.6,0.8
	c0,0.1-0.1,0.3-0.1,0.4v4.9l-8.1-4.8c-1.8-1-3.8-1.5-5.8-1.4c-5.7,0-9.2,2.8-9.2,7.3v2.3c-0.4,0.2-0.7,0.4-1,0.8
	c-0.8,1.2-0.8,2.7,0,3.9c0.3,0.3,0.6,0.6,1,0.8V22H3.8c-0.7,0-1.7,0.4-2.6,2.2l-0.1,0.1c-0.3,0.7-0.6,1.4-0.7,2.2v0.2
	C0.1,28.1,0,29.5,0,30.9c0,2.3,0.3,4.7,1,6.9L1.1,38c0.2,0.5,0.4,1.1,0.7,1.5l0.1,0.2L2,40l0.2,0.3c0.1,0.2,0.3,0.3,0.4,0.5H1.4
	c-0.2,0-0.4,0.2-0.4,0.3c0,0.2,0.2,0.4,0.4,0.4h50.8c0.2,0,0.4-0.2,0.4-0.4c0-0.2-0.2-0.3-0.4-0.3h-2.8l0,0l0.2-0.6
	c0.2-0.2,0.3-0.4,0.5-0.7c0.3,0,0.5-0.2,0.6-0.5l0.5-1.2c0.1-0.3,0.1-0.5-0.1-0.8c0.1-0.3,0.2-0.6,0.3-1l0.2-0.1
	c0.2-0.1,0.4-0.3,0.4-0.6l0.3-1.9c0-0.3,0-0.5-0.2-0.7L52,32.7c0-0.4,0.1-0.8,0.1-1.2L52.4,31.4z M9.8,40.8c1.1-1.2,1.8-3.6,2-6.5
	c0.3,0.2,0.7,0.3,1.1,0.3h5.7c0.8,0,1.5-0.4,1.9-1.1h3.5c0.3,3.2,1.3,5.8,2.5,7.2H9.8z M33.5,40.8c1-1.2,1.8-3.5,2-6.3l0.3,1.2
	c0.1,0.3,0.2,0.5,0.5,0.6l0.1,0c0.1,0.3,0.2,0.5,0.3,0.8c-0.2,0.2-0.2,0.6-0.1,0.8l0.5,1.1c0.1,0.3,0.4,0.4,0.7,0.4
	c0.1,0.2,0.3,0.4,0.4,0.5l0.2,0.2l0,0.1l0.1,0.5L33.5,40.8z M48.9,41.3L48.9,41.3z M52.1,30.7c0,0.1,0,0.1-0.1,0.2l-0.4,0.4
	c0,0.6-0.1,1.1-0.2,1.7l0.3,0.3c0,0.1,0,0.1,0,0.2l-0.3,1.9c0,0.1-0.1,0.1-0.1,0.2l-0.4,0.2c-0.1,0.5-0.3,1-0.5,1.5l0.2,0.2
	c0,0.1,0,0.1,0,0.2L50,38.8c0,0.1-0.1,0.1-0.1,0.1h-0.3c-0.2,0.4-0.4,0.7-0.7,1l-0.2,0.7c0,0.1-0.1,0.1-0.1,0.1
	c-0.1,0-0.3,0.1-0.4,0.1h-8.7h-0.2c-0.1,0-0.1-0.1-0.1-0.1L39.1,40l0,0L39,39.9l-0.2-0.2c-0.2-0.2-0.4-0.5-0.5-0.7l0,0h-0.3
	c-0.1,0-0.1,0-0.2-0.1l-0.6-1.2c0-0.1,0-0.1,0-0.2l0.2-0.3c-0.2-0.4-0.3-0.8-0.5-1.2v-0.1l-0.4-0.2c-0.1,0-0.1-0.1-0.1-0.1l-0.5-1.9
	c0-0.1,0-0.1,0-0.2l0.2-0.3v-0.1V33h-1.3c0,3.5-0.9,6.6-2.1,7.7l-0.2,0.1h-5.3l-0.2-0.2l0,0c-1.3-1.1-2.4-4.1-2.7-7.7h-4.5
	c-0.1,0.6-0.8,1.1-1.4,1h-5.7c-0.6,0-1.2-0.4-1.4-1h-0.3c0,3.5-0.9,6.5-2.1,7.7h0c-0.1,0.1-0.1,0.1-0.2,0.2H3.6
	c-0.1,0-0.2-0.1-0.2-0.2l0,0l-0.2-0.2C3,40.3,2.9,40.1,2.8,40l-0.2-0.2l-0.2-0.3l-0.1-0.1c-0.3-0.5-0.5-1-0.6-1.5l-0.1-0.2
	c-0.7-2.2-1-4.4-1-6.7c0-1.4,0.1-2.8,0.4-4.1v-0.2c0.2-0.7,0.4-1.4,0.7-2.1l0.1-0.1c0.6-1.1,1.3-1.8,2-1.8h1v-3.8
	c-0.4-0.1-0.8-0.3-1.1-0.7C3,17.1,3,15.9,3.7,15c0.3-0.4,0.7-0.6,1.1-0.7v-2.7l0,0c0-4.1,3.2-6.7,8.6-6.7c1.9-0.1,3.8,0.4,5.5,1.3
	l9.2,5.4v-6l0,0c0-0.1,0-0.2,0-0.2c0.1-0.3,0.4-0.5,0.7-0.6V1.1l0,0c0,0,0-0.1,0-0.1c0.1-0.2,0.3-0.4,0.6-0.4c0.1,0,0.2,0,0.3,0
	c0.3,0.1,0.5,0.3,0.6,0.6v3.6C30.6,5.1,31,5.5,31,6.1v7.1c0.3-0.1,0.5-0.1,0.8-0.1c0.5,0,0.9,0.1,1.3,0.2c1.5,0.5,2.4,1.8,2,2.8
	c-0.2,0.6-0.7,1-1.3,1.1v0.3c0.8,0.2,1.5,0.6,2.1,1.2l0.1-0.5l0,0c-0.4-0.8-0.5-1.7-0.2-2.6c0.6-1.9,2.2-4.2,4-4.3h7.1
	c0.5,0,1.7,1,2.1,2.8h0.1c0.1,0,0.1,0,0.2,0.1l0.6,1.1c0,0.1,0,0.1,0,0.2l-0.2,0.2c0.2,0.4,0.3,0.9,0.5,1.4l0.3,0.1
	c0.1,0,0.1,0.1,0.1,0.1l0.5,1.9c0,0.1,0,0.1,0,0.2l-0.2,0.3c0.1,0.6,0.3,1.3,0.4,2l0.5,0.4c0,0,0.1,0.1,0.1,0.2l0.2,2.5
	c0,0.1,0,0.1,0,0.2l-0.3,0.4c0,0.7,0.1,1.5,0.1,2.2l0.3,0.4c0,0,0.1,0.1,0.1,0.2L52.1,30.7z"/>
</svg>
