<?xml version="1.0" encoding="utf-8"?>
<!-- Generator: Adobe Illustrator 22.1.0, SVG Export Plug-In . SVG Version: 6.00 Build 0)  -->
<svg version="1.1" id="Layer_1" xmlns="http://www.w3.org/2000/svg" xmlns:xlink="http://www.w3.org/1999/xlink" x="0px" y="0px"
	 viewBox="0 0 1366 768" style="enable-background:new 0 0 1366 768;" xml:space="preserve">
<style type="text/css">
	.st0{fill:#E6E6E6;}
</style>
<path class="st0" d="M694.5,378c-1.4,0-2.7,0.5-3.7,1.3c-1-1.9-3-3.3-5.3-3.3c-0.8,0-1.7,0.2-2.4,0.5c-1.2-1.5-3-2.5-5.1-2.5
	c-3.1,0-5.7,2.2-6.4,5.1c-0.4-0.1-0.7-0.1-1.1-0.1c-2.8,0-5,2.2-5,5v8c0,1.1,0.9,2,2,2h1c1.1,0,2-0.9,2-2v-1.6
	c0.6,0.4,1.3,0.6,2.1,0.6h2c1.3,0,2.4-0.6,3.1-1.6c1.1,1.5,2.9,2.6,4.9,2.6c3.3,0,6-2.7,6-6h11.6c0.2-0.6,0.3-1.3,0.3-2
	C700.5,380.7,697.8,378,694.5,378z"/>
</svg>
