<?xml version="1.0" encoding="utf-8"?>
<!-- Generator: Adobe Illustrator 22.1.0, SVG Export Plug-In . SVG Version: 6.00 Build 0)  -->
<svg version="1.1" id="Layer_1" xmlns="http://www.w3.org/2000/svg" xmlns:xlink="http://www.w3.org/1999/xlink" x="0px" y="0px"
	 viewBox="0 0 144 188" style="enable-background:new 0 0 144 188;" xml:space="preserve">
<g id="surface1">
	<path d="M58.9,0c-2.2,0.3-3.8,2.4-3.4,4.6S57.8,8.3,60,8v4h8V8h8v4h8V8c1.4,0,2.8-0.7,3.5-2c0.7-1.2,0.7-2.8,0-4
		c-0.7-1.2-2.1-2-3.5-2H60c-0.1,0-0.2,0-0.4,0s-0.2,0-0.4,0S59,0,58.9,0z M7.2,16C5.3,16.4,4,18,4,20v44c0,0.6,0.1,1.2,0.4,1.8
		L7.5,72l-3.1,6.2C4.1,78.8,4,79.4,4,80v36c0,0.6,0.1,1.2,0.4,1.8l3.1,6.2l-3.1,6.2C4.1,130.8,4,131.4,4,132v38.1
		c-2.4,1.8-4,4.6-4,7.9c0,5.5,4.5,10,10,10h124c5.5,0,10-4.5,10-10c0-3.2-1.6-6-4-7.9V132c0-0.6-0.1-1.2-0.4-1.8l-3.1-6.2l3.1-6.2
		c0.2-0.5,0.4-1.1,0.4-1.8V80c0-0.6-0.1-1.2-0.4-1.8l-3.1-6.2l3.1-6.2c0.2-0.5,0.4-1.1,0.4-1.8V20c0-2.2-1.8-4-4-4H8
		c-0.1,0-0.2,0-0.4,0S7.4,16,7.2,16z M12,24h120v39l-2.5,5H48c-0.1,0-0.2,0-0.4,0c-2.2,0.1-3.9,2-3.8,4.2s2,3.9,4.2,3.8h81.5l2.5,5
		v34l-2.5,5H48c-0.1,0-0.2,0-0.4,0s-0.2,0-0.4,0c-2.2,0.2-3.8,2.2-3.6,4.4s2.2,3.8,4.4,3.6h81.5l2.5,5v35H48c-1.4,0-2.8,0.7-3.5,2
		c-0.7,1.2-0.7,2.8,0,4c0.7,1.2,2.1,2,3.5,2h86c1.1,0,2,0.9,2,2s-0.9,2-2,2H10c-1.1,0-2-0.9-2-2s0.9-2,2-2h22c1.4,0,2.8-0.7,3.5-2
		c0.7-1.2,0.7-2.8,0-4c-0.7-1.2-2.1-2-3.5-2H12v-35l2.5-5H32c1.4,0,2.8-0.7,3.5-2c0.7-1.2,0.7-2.8,0-4c-0.7-1.2-2.1-2-3.5-2H14.5
		l-2.5-5V81l2.5-5H32c1.4,0,2.8-0.7,3.5-2c0.7-1.2,0.7-2.8,0-4c-0.7-1.2-2.1-2-3.5-2H14.5L12,63V24z M58,32c-3.3,0-6,2.7-6,6
		s2.7,6,6,6h28c3.3,0,6-2.7,6-6s-2.7-6-6-6H58z"/>
</g>
</svg>
